<?xml version="1.0" encoding="UTF-8"?>
<svg id="Layer_2" xmlns="http://www.w3.org/2000/svg" viewBox="0 0 872 306">
  <g id="Text">
    <path d="M307.87,158.67v-55.09l-7.89,14.68h-12.26l-7.4-14.44v54.73c0,1.46-.04,2.43-.12,2.91-.32,1.13-1.9,1.7-4.73,1.7-8.09,0-12.13-1.5-12.13-4.49v-86.03c0-3.07,2.79-4.61,8.37-4.61s8.94,1.5,10.07,4.49l12.26,31.31,12.86-31.43c.65-1.78,1.44-2.95,2.37-3.52.93-.56,2.57-.85,4.91-.85,5.82,0,8.78,1.58,8.86,4.73l1.94,36.16v48.9c0,2.43-.22,3.92-.67,4.49-.45.57-1.9.85-4.37.85s-4.47-.08-6.01-.24c-1.54-.16-2.93-.59-4.19-1.27-1.26-.69-1.88-1.68-1.88-2.97Z" style="fill: #f470b0;"/>
    <path d="M363.57,157.46c-4.21,3.8-7.95,5.7-11.22,5.7s-5.93-.22-7.95-.67c-2.02-.45-3.84-1.42-5.46-2.91-1.62-1.5-2.75-3.66-3.4-6.49-.65-2.83-.97-6.59-.97-11.28,0-6.55,3.19-11.04,9.59-13.47l17.35-4.49c-.08-5.26-.61-8.65-1.58-10.19-.97-1.54-3.08-2.31-6.31-2.31s-6.03.53-8.37,1.58l-4.25,1.7h-.12c-.73.41-1.38.08-1.94-.97-1.46-3.07-2.18-5.48-2.18-7.22s.14-2.71.42-2.91c.28-.2.42-.34.42-.42,4.04-2.67,9.28-4,15.71-4s11.39.85,14.86,2.55c3.48,1.7,6.01,4.79,7.58,9.28,1.58,4.49,2.37,11.14,2.37,19.96l-.24,30.34c0,.49-.08.81-.24.97-.32.65-1.86.97-4.61.97-5.02,0-7.52-.65-7.52-1.94l-1.94-3.76ZM348.03,142.05c0,5.82,1.7,8.9,5.1,9.22,2.35,0,4.04-.4,5.1-1.21,2.26-1.54,3.4-7.28,3.4-17.23-4.21.57-7.52,1.72-9.95,3.46-2.43,1.74-3.64,3.66-3.64,5.76Z" style="fill: #f470b0;"/>
    <path d="M402.52,163.16c-5.99,0-10.37-2.45-13.17-7.34-2.79-4.89-4.19-13.41-4.19-25.54s1.76-20.36,5.28-24.69c3.52-4.33,10.17-6.49,19.96-6.49h5.82v-29.12c0-1.29,1.41-1.94,4.25-1.94s5.18.18,7.04.55c1.86.36,2.83.83,2.91,1.4l2.06,38.71v52.54c0,.49-.04.81-.12.97-.41.65-1.9.97-4.49.97s-4.79-.18-6.61-.55-2.73-.83-2.73-1.4l-2.31-3.76c-2.35,1.54-4,2.63-4.98,3.28-2.67,1.62-5.58,2.43-8.74,2.43ZM404.28,114.44c-1.09,2.47-1.64,6.63-1.64,12.5s.02,9.73.06,11.59c.04,1.86.1,4,.18,6.43.16,4.37.73,6.55,1.7,6.55,2.91,0,6.8-1.46,11.65-4.37v-36.4h-5.82c-2.99,0-5.04,1.23-6.13,3.7Z" style="fill: #f470b0;"/>
    <path d="M455.54,163.16c-5.99,0-10.38-2.45-13.17-7.34-2.79-4.89-4.19-13.41-4.19-25.54s1.76-20.36,5.28-24.69c3.52-4.33,10.17-6.49,19.96-6.49h5.82v-29.12c0-1.29,1.42-1.94,4.25-1.94s5.18.18,7.04.55c1.86.36,2.83.83,2.91,1.4l2.06,38.71v52.54c0,.49-.04.81-.12.97-.4.65-1.9.97-4.49.97s-4.79-.18-6.61-.55-2.73-.83-2.73-1.4l-2.31-3.76c-2.35,1.54-4,2.63-4.97,3.28-2.67,1.62-5.58,2.43-8.74,2.43ZM457.3,114.44c-1.09,2.47-1.64,6.63-1.64,12.5s.02,9.73.06,11.59c.04,1.86.1,4,.18,6.43.16,4.37.73,6.55,1.7,6.55,2.91,0,6.79-1.46,11.65-4.37v-36.4h-5.82c-2.99,0-5.04,1.23-6.13,3.7Z" style="fill: #f470b0;"/>
    <path d="M490.73,100.67c0-1.05,1.48-1.58,4.43-1.58s5.7.2,8.25.61c2.55.41,3.86.85,3.94,1.33l10.8,41.5,9.46-41.5c.32-1.29,1.62-1.94,3.88-1.94,4.45,0,7.4.24,8.86.73,1.46.49,2.18.85,2.18,1.09l-24.27,87.49c-.32,1.29-1.62,1.94-3.88,1.94s-4.13-.08-5.58-.24c-3.15-.41-4.65-.97-4.49-1.7,0-.24.04-.45.12-.61l6.19-26.57-19.78-59.94v-.24c-.08-.16-.12-.28-.12-.36Z" style="fill: #f470b0;"/>
    <path d="M589.87,106.01c3.23,0,4.85,1.46,4.85,4.37,0,3.96-.24,6.67-.73,8.13s-1.74,2.18-3.76,2.18h-23.78v25.85h28.03c1.94.08,3.28.47,4,1.15.73.69,1.09,1.72,1.09,3.09,0,3.96-.36,6.69-1.09,8.19-.73,1.5-2.18,2.25-4.37,2.25h-42.71l-1.94-1.94v-89.31h43.08c3.48.08,5.22,1.38,5.22,3.88-.08,2.18-.2,3.9-.36,5.16-.16,1.26-.67,2.49-1.52,3.7s-2.08,1.82-3.7,1.82h-27.06l1.33,21.48h23.42Z" style="fill: #f470b0;"/>
    <path d="M670.2,161.22v-36.89c0-9.06-.65-13.59-1.94-13.59-2.83,0-6.92,1.58-12.26,4.73.4,2.99.61,5.95.61,8.86v36.89c0,.49-.04.81-.12.97-.41.65-1.96.97-4.67.97s-5.5-.2-8.37-.61c-2.87-.41-4.31-.85-4.31-1.33v-41.38c-.16-6.07-.81-9.1-1.94-9.1-2.91,0-6.8,1.46-11.65,4.37v46.11c0,.49-.04.81-.12.97-.41.65-1.96.97-4.67.97s-5.5-.2-8.37-.61c-2.87-.41-4.31-.85-4.31-1.33v-60.19c0-1.29,1.62-1.94,4.85-1.94,5.1,0,8.01.65,8.74,1.94,0,.16.04.24.12.24l2.31,4.61c6.79-4.53,11.85-6.8,15.17-6.8,7.12,0,11.93,2.59,14.44,7.77,7.44-5.18,12.98-7.77,16.62-7.77,5.99,0,10.38,1.86,13.17,5.58,2.79,3.72,4.19,10.27,4.19,19.66v36.89c0,.49-.04.81-.12.97-.41.65-1.96.97-4.67.97s-5.5-.2-8.37-.61c-2.87-.41-4.31-.85-4.31-1.33Z" style="fill: #f470b0;"/>
    <path d="M760.59,161.22v-36.89c0-9.06-.65-13.59-1.94-13.59-2.83,0-6.92,1.58-12.26,4.73.4,2.99.61,5.95.61,8.86v36.89c0,.49-.04.81-.12.97-.41.65-1.96.97-4.67.97s-5.5-.2-8.37-.61c-2.87-.41-4.31-.85-4.31-1.33v-41.38c-.16-6.07-.81-9.1-1.94-9.1-2.91,0-6.8,1.46-11.65,4.37v46.11c0,.49-.04.81-.12.97-.41.65-1.96.97-4.67.97s-5.5-.2-8.37-.61c-2.87-.41-4.31-.85-4.31-1.33v-60.19c0-1.29,1.62-1.94,4.85-1.94,5.1,0,8.01.65,8.74,1.94,0,.16.04.24.12.24l2.31,4.61c6.79-4.53,11.85-6.8,15.17-6.8,7.12,0,11.93,2.59,14.44,7.77,7.44-5.18,12.98-7.77,16.62-7.77,5.99,0,10.38,1.86,13.17,5.58,2.79,3.72,4.19,10.27,4.19,19.66v36.89c0,.49-.04.81-.12.97-.41.65-1.96.97-4.67.97s-5.5-.2-8.37-.61c-2.87-.41-4.31-.85-4.31-1.33Z" style="fill: #f470b0;"/>
    <path d="M785.95,100.67c0-1.05,1.48-1.58,4.43-1.58s5.7.2,8.25.61c2.55.41,3.86.85,3.94,1.33l10.8,41.5,9.46-41.5c.32-1.29,1.62-1.94,3.88-1.94,4.45,0,7.4.24,8.86.73,1.46.49,2.18.85,2.18,1.09l-24.27,87.49c-.32,1.29-1.62,1.94-3.88,1.94s-4.13-.08-5.58-.24c-3.15-.41-4.65-.97-4.49-1.7,0-.24.04-.45.12-.61l6.19-26.57-19.78-59.94v-.24c-.08-.16-.12-.28-.12-.36Z" style="fill: #f470b0;"/>
    <path d="M263.34,177.93c0-1.78.42-2.97,1.27-3.58.85-.61,2.49-.91,4.91-.91,5.82,0,8.78,1.46,8.86,4.37l1.82,36.4.12,37.74h23.54c3.96,0,5.95,1.46,5.95,4.37,0,5.26-.77,8.42-2.31,9.46-.81.57-1.86.85-3.15.85h-39.07l-1.94-1.94v-86.76Z" style="fill: #78489e;"/>
    <path d="M343.91,262.87c-4.21,3.8-7.95,5.7-11.22,5.7s-5.93-.22-7.95-.67c-2.02-.45-3.84-1.42-5.46-2.91-1.62-1.5-2.75-3.66-3.4-6.49-.65-2.83-.97-6.59-.97-11.29,0-6.55,3.19-11.04,9.59-13.47l17.35-4.49c-.08-5.26-.61-8.66-1.58-10.19-.97-1.54-3.08-2.31-6.31-2.31s-6.03.53-8.37,1.58l-4.25,1.7h-.12c-.73.41-1.38.08-1.94-.97-1.46-3.07-2.18-5.48-2.18-7.22s.14-2.71.42-2.91c.28-.2.42-.34.42-.42,4.04-2.67,9.28-4,15.71-4s11.39.85,14.86,2.55c3.48,1.7,6.01,4.79,7.58,9.28,1.58,4.49,2.37,11.14,2.37,19.96l-.24,30.34c0,.49-.08.81-.24.97-.32.65-1.86.97-4.61.97-5.02,0-7.52-.65-7.52-1.94l-1.94-3.76ZM328.38,247.46c0,5.82,1.7,8.9,5.1,9.22,2.35,0,4.04-.4,5.1-1.21,2.26-1.54,3.4-7.28,3.4-17.23-4.21.57-7.52,1.72-9.95,3.46-2.43,1.74-3.64,3.66-3.64,5.76Z" style="fill: #78489e;"/>
    <path d="M390.99,204.5c9.79,0,16.44,2.17,19.96,6.49,3.52,4.33,5.28,12.56,5.28,24.69s-1.4,20.65-4.19,25.54c-2.79,4.9-7.18,7.34-13.17,7.34-4.13,0-9.06-.49-14.8-1.46l-2.79-.49c-2.18,1.29-6.31,1.94-12.38,1.94v-93.19c0-1.29,1.41-1.94,4.25-1.94s5.18.18,7.04.55c1.86.36,2.83.83,2.91,1.4l2.06,29.12h5.82ZM385.17,216.15v40.77h11.65c.89,0,1.44-1.72,1.64-5.16.2-3.44.3-9,.3-16.68s-.55-12.76-1.64-15.23c-1.09-2.47-3.14-3.7-6.13-3.7h-5.82Z" style="fill: #78489e;"/>
    <path d="M457.36,220.76l-.73-.24-4.61-2.31c-3.48-1.37-6.47-2.06-8.98-2.06-3.64.16-5.46,1.9-5.46,5.22,0,1.29.71,2.35,2.12,3.16,1.41.81,2.57,1.44,3.46,1.88.89.45,2.19,1.07,3.88,1.88,6.07,2.59,10.57,5.46,13.53,8.62,2.95,3.15,4.43,6.27,4.43,9.34,0,6.72-1.78,12.12-5.34,16.2-3.56,4.09-8.39,6.13-14.5,6.13s-10.9-.81-14.38-2.43c-3.48-1.62-6.39-3.92-8.74-6.92-.32-.16-.49-.4-.49-.73s.06-.73.18-1.21c.12-.49,1.07-1.8,2.85-3.94,1.78-2.14,3.19-3.22,4.25-3.22.32,0,.65.16.97.49,4.29,3.4,8.45,5.1,12.5,5.1,2.26,0,3.96-.65,5.1-1.94,1.13-1.29,1.7-2.71,1.7-4.25s-.65-2.79-1.94-3.76c-1.29-.97-2.89-1.92-4.79-2.85-1.9-.93-2.93-1.43-3.1-1.52-.16-.08-.38-.2-.67-.36-.29-.16-.55-.28-.79-.36-4.13-2.02-7.63-4.55-10.5-7.58-2.87-3.03-4.31-6.41-4.31-10.13,0-6.47,1.68-11.16,5.04-14.08,3.36-2.91,8.68-4.37,15.96-4.37,2.75,0,5.38.32,7.89.97,3.4.89,5.82,1.94,7.28,3.15h.12c.65.41,1.03.89,1.15,1.46.12.57.06,1.78-.18,3.64-.81,4.69-1.78,7.04-2.91,7.04Z" style="fill: #78489e;"/>
    <path d="M481.51,268.57c-5.82,0-8.74-2.91-8.74-8.74s2.91-8.74,8.74-8.74,8.74,2.91,8.74,8.74-2.91,8.74-8.74,8.74Z" style="fill: #78489e;"/>
    <path d="M513.91,268.57c-5.99,0-10.38-2.45-13.17-7.34-2.79-4.89-4.19-13.41-4.19-25.54s1.76-20.36,5.28-24.69c3.52-4.33,10.17-6.49,19.96-6.49h5.82v-29.12c0-1.29,1.42-1.94,4.25-1.94s5.18.18,7.04.55c1.86.36,2.83.83,2.91,1.4l2.06,38.71v52.54c0,.49-.04.81-.12.97-.41.65-1.9.97-4.49.97s-4.79-.18-6.61-.55-2.73-.83-2.73-1.4l-2.31-3.76c-2.35,1.54-4,2.63-4.97,3.28-2.67,1.62-5.58,2.43-8.74,2.43ZM515.67,219.85c-1.09,2.47-1.64,6.63-1.64,12.5s.02,9.73.06,11.59c.04,1.86.1,4,.18,6.43.16,4.37.73,6.55,1.7,6.55,2.91,0,6.79-1.46,11.65-4.37v-36.4h-5.82c-2.99,0-5.04,1.23-6.13,3.7Z" style="fill: #78489e;"/>
    <path d="M576.76,268.57c-8.66,0-14.66-2.35-18.02-7.04-3.36-4.69-5.04-13.1-5.04-25.24,0-8.74.77-15.39,2.31-19.96,1.54-4.57,3.86-7.68,6.98-9.34,3.11-1.66,7.71-2.49,13.77-2.49s10.66.85,13.77,2.55c3.11,1.7,5.4,4.85,6.86,9.46s2.18,11.16,2.18,19.66v1.46c0,.49-.95.93-2.85,1.33-1.9.41-4.19.61-6.86.61h-18.69c.16,9.46.85,14.85,2.06,16.14.73.65,1.9.97,3.52.97,10.6,0,17.84-.53,21.72-1.58.16-.08.28-.12.36-.12.57-.16,1.03.16,1.4.97.36.81.55,2.71.55,5.7s-.65,4.65-1.94,4.97c-3.32,1.29-10.68,1.94-22.08,1.94ZM571.18,220.4v9.46h12.26c-.32-9.38-1.26-14.08-2.79-14.08-2.75,0-5.02.41-6.79,1.21-1.78.81-2.67,1.94-2.67,3.4Z" style="fill: #78489e;"/>
    <path d="M602,206.08c0-1.05,1.48-1.58,4.43-1.58s5.7.2,8.25.61c2.55.41,3.86.85,3.94,1.33l10.8,45.38,9.46-45.38c.32-1.29,1.62-1.94,3.88-1.94s4.17.08,5.7.24c3.72.41,5.5.97,5.34,1.7l-.12.24-15.17,59.94c-.32,1.29-1.88,1.94-4.67,1.94s-5.75-.2-8.86-.61c-3.12-.41-4.75-.85-4.92-1.33l-17.96-59.94v-.24c-.08-.16-.12-.28-.12-.36Z" style="fill: #78489e;"/>
  </g>
  <g id="Shine">
    <path d="M152.74,56.07c-2.76,0-5-2.24-5-5v-19.26c0-2.76,2.24-5,5-5s5,2.24,5,5v19.26c0,2.76-2.24,5-5,5Z" style="fill: #c9add9;"/>
    <path d="M203.12,68.66c-1.28,0-2.56-.49-3.54-1.46-1.95-1.95-1.95-5.12,0-7.07l13.62-13.62c1.95-1.95,5.12-1.95,7.07,0,1.95,1.95,1.95,5.12,0,7.07l-13.62,13.62c-.98.98-2.26,1.46-3.54,1.46Z" style="fill: #c9add9;"/>
    <path d="M102.05,68.34c-1.43,0-2.84-.61-3.83-1.79l-12.38-14.75c-1.78-2.11-1.5-5.27.61-7.04s5.27-1.5,7.04.61l12.38,14.75c1.78,2.11,1.5,5.27-.61,7.04-.94.79-2.08,1.17-3.21,1.17Z" style="fill: #c9add9;"/>
  </g>
  <g id="Circles">
    <circle id="Yellow_Circle" cx="57.33" cy="95.22" r="14.52" style="fill: #feda9e;"/>
    <circle id="Purple_Circle" cx="47.26" cy="147.07" r="11.56" style="fill: #78489e;"/>
    <circle id="Pink_Circle" cx="61.97" cy="193.09" r="9.41" style="fill: #f470b0;"/>
  </g>
  <g id="Light_Bulb">
    <path id="Screw" d="M174.67,236.65v30.93h-7.3c-1.74,0-3.37.81-4.39,2.22-1.05,1.44-4.92,6.16-10.66,6.16s-9.58-4.72-10.63-6.16c-1.02-1.41-2.64-2.22-4.38-2.22h-7.09v-9.8h29.89c2.76,0,5-2.24,5-5s-2.24-5-5-5h-29.89v-11.13h44.45Z" style="fill: #c9add9;"/>
    <path id="Bulb_Purple" d="M152.35,67.5c-20.69,0-40.21,7.93-54.9,22.35-14.71,14.41-22.82,33.57-22.82,53.93,0,19.08,4.32,32.32,14.47,44.3,3.28,3.55,6.67,6.7,9.37,9.25,9.88,9.31,18.35,17.3,21,34.72l.69,4.6.06,36.57c0,2.76,2.24,5,5,5,.3,0,9.53.17,9.53.17,3.07,3.36,9.04,8.38,17.57,8.38s14.54-5.02,17.6-8.38c0,0,9.39-.17,9.75-.17,2.76,0,5-2.24,5-5v-37.34l.6-3.83c2.64-17.42,11.11-25.41,20.9-34.66,2.73-2.55,6.1-5.73,9.37-9.28,9.7-11.89,14.51-26.73,14.51-44.33,0-42.04-34.87-76.28-77.7-76.28ZM174.67,267.58h-7.3c-1.74,0-3.37.81-4.39,2.22-1.05,1.44-4.92,6.16-10.66,6.16s-9.58-4.72-10.63-6.16c-1.02-1.41-2.64-2.22-4.38-2.22h-7.09v-9.8h29.89c2.76,0,5-2.24,5-5s-2.24-5-5-5h-29.89v-11.13h44.45v30.93Z" style="fill: #78489e;"/>
    <path id="Bulb_Yellow" d="M219.23,143.78c0,15.05-3.99,27.6-11.86,37.28-2.55,2.73-5.31,5.34-8.59,8.46-9.55,9.01-19.4,18.29-23.36,36.31h-17.69v-33.06l32.52-32.47c4.96-4.95,7.72-11.53,7.78-18.5.09-7.02-2.58-13.6-7.48-18.5s-11.59-7.57-18.5-7.51c-6.99.09-13.54,2.86-18.5,7.81l-1.2,1.2-1.26-1.23c-4.98-4.98-11.65-7.78-18.71-7.78h-.03c-6.94,0-13.39,2.68-18.23,7.51-10.12,10.12-10,26.73.27,37l17.27,17.21c2.1,2.1,5.53,2.1,7.63,0s2.1-5.52,0-7.66l-17.24-17.21c-6.07-6.06-6.19-15.79-.3-21.71,2.79-2.76,6.58-4.32,10.6-4.32s8.14,1.65,11.11,4.62l5.08,5.05c2.1,2.1,5.52,2.07,7.63-.03l5.01-5.02c2.95-2.94,6.85-4.56,10.96-4.62,4.24-.06,7.93,1.5,10.76,4.32,2.82,2.85,4.38,6.67,4.32,10.75-.03,4.15-1.68,8.02-4.62,10.96l-34.09,34.06c-1.02,1.02-1.59,2.4-1.59,3.82v35.31h-17.6c-3.97-18.02-13.82-27.3-23.37-36.31-2.79-2.64-5.88-5.52-8.77-8.58-8.17-9.71-11.74-20.85-11.74-37.19s5.71-30.71,16.15-42.58c1.09-1.25,2.23-2.46,3.43-3.64,5.63-5.49,12.06-9.89,19.04-13.1,8.75-4,18.35-6.12,28.29-6.12,36.88,0,66.88,29.38,66.88,65.47Z" style="fill: #feda9e;"/>
    <path id="Heart" d="M187.22,141.68c-.03,4.15-1.68,8.02-4.62,10.96l-30.24,30.21-17.6-17.59-.03.03-12.68-12.65c-6.07-6.06-6.19-15.79-.3-21.71,2.79-2.76,6.58-4.32,10.6-4.32s8.14,1.65,11.11,4.62l5.08,5.05c2.1,2.1,5.52,2.07,7.63-.03l5.01-5.02c2.95-2.94,6.85-4.56,10.96-4.62,4.24-.06,7.93,1.5,10.76,4.32,2.82,2.85,4.38,6.67,4.32,10.75Z" style="fill: #f470b0;"/>
    <path id="Shine-2" data-name="Shine" d="M111.31,110.43c-10.34-.58-12.03-4.5-9.72-9.26,1.09-1.25,2.23-2.46,3.43-3.64,5.63-5.49,12.06-9.89,19.04-13.1,11.88,8.99-5.05,19.38-12.75,26Z" style="fill: #fef7e3;"/>
  </g>
</svg>