<?xml version="1.0" encoding="UTF-8"?>
<svg id="Layer_2" xmlns="http://www.w3.org/2000/svg" viewBox="0 0 1000 1000">
  <rect width="1000" height="1000" rx="103.81" ry="103.81" style="fill: #c9add9;"/>
  <g>
    <g id="Shine">
      <path d="M511.91,145.21c-9.12,0-16.52-7.4-16.52-16.52v-63.64c0-9.12,7.4-16.52,16.52-16.52s16.52,7.4,16.52,16.52v63.64c0,9.12-7.4,16.52-16.52,16.52Z" style="fill: #fef7e3;"/>
      <path d="M678.38,186.8c-4.23,0-8.46-1.61-11.68-4.84-6.45-6.45-6.45-16.91,0-23.37l45-45c6.45-6.45,16.91-6.45,23.37,0,6.45,6.45,6.45,16.91,0,23.37l-45,45c-3.23,3.23-7.45,4.84-11.68,4.84Z" style="fill: #fef7e3;"/>
      <path d="M344.38,185.73c-4.71,0-9.39-2.01-12.66-5.9l-40.92-48.74c-5.87-6.99-4.96-17.41,2.03-23.28s17.41-4.96,23.28,2.03l40.92,48.74c5.87,6.99,4.96,17.41-2.03,23.28-3.1,2.6-6.87,3.87-10.62,3.87Z" style="fill: #fef7e3;"/>
    </g>
    <g id="Circles">
      <circle id="Yellow_Circle" cx="196.63" cy="274.57" r="47.98" style="fill: #feda9e;"/>
      <circle id="Purple_Circle" cx="163.34" cy="445.92" r="38.19" style="fill: #78489e;"/>
      <circle id="Pink_Circle" cx="211.94" cy="597.98" r="31.09" style="fill: #f470b0;"/>
    </g>
    <g id="Light_Bulb">
      <path id="Screw" d="M584.37,741.93v102.21h-24.12c-5.75,0-11.14,2.68-14.51,7.34-3.47,4.76-16.26,20.36-35.23,20.36s-31.66-15.6-35.13-20.36c-3.37-4.66-8.72-7.34-14.47-7.34h-23.43v-32.38h98.77c9.12,0,16.52-7.4,16.52-16.52s-7.4-16.52-16.52-16.52h-98.77v-36.78h146.89Z" style="fill: #c9add9;"/>
      <path id="Bulb_Purple" d="M510.62,182.96c-68.37,0-132.88,26.21-181.42,73.86-48.61,47.62-75.41,110.93-75.41,178.21,0,63.05,14.28,106.8,47.82,146.39,10.84,11.73,22.04,22.14,30.96,30.57,32.65,30.77,60.64,57.17,69.4,114.73l2.28,15.2.2,120.85c0,9.12,7.4,16.52,16.52,16.52.99,0,31.49.56,31.49.56,10.15,11.1,29.87,27.69,58.06,27.69s48.05-16.59,58.16-27.69c0,0,31.03-.56,32.22-.56,9.12,0,16.52-7.4,16.52-16.52v-123.39l1.98-12.66c8.72-57.57,36.71-83.97,69.07-114.54,9.02-8.43,20.16-18.94,30.96-30.67,32.05-39.29,47.95-88.33,47.95-146.49,0-138.92-115.23-252.07-256.76-252.07ZM584.37,844.14h-24.12c-5.75,0-11.14,2.68-14.51,7.34-3.47,4.76-16.26,20.36-35.23,20.36s-31.66-15.6-35.13-20.36c-3.37-4.66-8.72-7.34-14.47-7.34h-23.43v-32.38h98.77c9.12,0,16.52-7.4,16.52-16.52s-7.4-16.52-16.52-16.52h-98.77v-36.78h146.89v102.21Z" style="fill: #78489e;"/>
      <path id="Bulb_Yellow" d="M731.62,435.04c0,49.73-13.19,91.21-39.19,123.19-8.43,9.02-17.55,17.65-28.39,27.96-31.56,29.77-64.11,60.44-77.19,119.99h-58.46v-109.25l107.46-107.3c16.39-16.36,25.51-38.1,25.71-61.13.3-23.2-8.53-44.94-24.72-61.13-16.16-16.16-38.3-25.02-61.13-24.82-23.1.3-44.74,9.45-61.13,25.81l-3.97,3.97-4.16-4.06c-16.46-16.46-38.5-25.71-61.83-25.71h-.1c-22.93,0-44.25,8.86-60.24,24.82-33.44,33.44-33.05,88.33.89,122.27l57.07,56.87c6.94,6.94,18.27,6.94,25.21,0s6.94-18.24,0-25.31l-56.97-56.87c-20.06-20.03-20.46-52.18-.99-71.74,9.22-9.12,21.74-14.28,35.03-14.28s26.9,5.45,36.71,15.27l16.79,16.69c6.94,6.94,18.24,6.84,25.21-.1l16.56-16.59c9.75-9.72,22.64-15.07,36.22-15.27,14.01-.2,26.21,4.96,35.56,14.28,9.32,9.42,14.47,22.04,14.28,35.52-.1,13.71-5.55,26.5-15.27,36.22l-112.65,112.55c-3.37,3.37-5.25,7.93-5.25,12.62v116.68h-58.16c-13.12-59.55-45.67-90.21-77.23-119.99-9.22-8.72-19.43-18.24-28.98-28.35-27-32.09-38.8-68.9-38.8-122.9s18.87-101.48,53.37-140.71c3.6-4.13,7.37-8.13,11.33-12.03,18.6-18.14,39.85-32.68,62.92-43.29,28.91-13.22,60.64-20.22,93.49-20.22,121.87,0,221.01,97.09,221.01,216.35Z" style="fill: #feda9e;"/>
      <path id="Heart" d="M625.84,428.1c-.1,13.71-5.55,26.5-15.27,36.22l-99.93,99.83-58.16-58.13-.1.1-41.9-41.8c-20.06-20.03-20.46-52.18-.99-71.74,9.22-9.12,21.74-14.28,35.03-14.28s26.9,5.45,36.71,15.27l16.79,16.69c6.94,6.94,18.24,6.84,25.21-.1l16.56-16.59c9.75-9.72,22.64-15.07,36.22-15.27,14.01-.2,26.21,4.96,35.56,14.28,9.32,9.42,14.47,22.04,14.28,35.52Z" style="fill: #f470b0;"/>
      <path id="Shine-2" data-name="Shine" d="M375,324.83c-34.17-1.92-39.75-14.87-32.12-30.6,3.6-4.13,7.37-8.13,11.33-12.03,18.6-18.14,39.85-32.68,62.92-43.29,39.26,29.71-16.69,64.04-42.13,85.92Z" style="fill: #fef7e3;"/>
    </g>
  </g>
</svg>